<svg xmlns="http://www.w3.org/2000/svg" width="24" height="24" viewBox="0 0 24 24">
    <defs>
        <clipPath id="3fitv6bo3a">
            <path data-name="패스 631" d="M-3.25-21h24V3h-24z" style="fill:none;clip-rule:evenodd"/>
        </clipPath>
        <clipPath id="j86m4t03mb">
            <path data-name="패스 630" d="M8.75-18a.75.75 0 0 1 .75.75v1.541h7.25a.75.75 0 0 1 .75.75.75.75 0 0 1-.75.75h-1V-2.5a2 2 0 0 1-2 2h-10a2 2 0 0 1-2-2v-11.709h-1a.75.75 0 0 1-.75-.75.75.75 0 0 1 .75-.75H8v-1.541a.75.75 0 0 1 .75-.75zm5.5 3.791h-11V-2.5a.5.5 0 0 0 .5.5h10a.5.5 0 0 0 .5-.5zm-7.5 1.849a.65.65 0 0 1 .65.651V-5a.65.65 0 0 1-.65.65A.65.65 0 0 1 6.1-5v-6.709a.65.65 0 0 1 .65-.651zm4 0a.65.65 0 0 1 .65.651V-5a.65.65 0 0 1-.65.65.65.65 0 0 1-.65-.65v-6.709a.65.65 0 0 1 .65-.651z" style="fill:none;clip-rule:evenodd"/>
        </clipPath>
    </defs>
    <g data-name="그룹 471" style="clip-path:url(#3fitv6bo3a)" transform="translate(3.25 21)">
        <g data-name="그룹 470" style="clip-path:url(#j86m4t03mb)">
            <path data-name="패스 629" d="M-1-19h19.5V.5H-1z" style="fill:#111"/>
        </g>
    </g>
</svg>
