<svg data-name="그룹 396" xmlns="http://www.w3.org/2000/svg" width="14" height="14" viewBox="0 0 14 14">
    <defs>
        <clipPath id="bbjz3rsnfa">
            <path data-name="사각형 30076" style="fill:none" d="M0 0h14v14H0z"/>
        </clipPath>
    </defs>
    <g data-name="그룹 395" style="clip-path:url(#bbjz3rsnfa)">
        <path data-name="패스 500" d="M7 1.2A5.8 5.8 0 1 1 1.2 7 5.807 5.807 0 0 1 7 1.2M7 0a7 7 0 1 0 7 7 7 7 0 0 0-7-7" style="fill:#111"/>
        <path data-name="패스 501" d="M6.959 10.715a.7.7 0 0 1-.7-.7v-4a.7.7 0 0 1 1.4 0v4a.7.7 0 0 1-.7.7" style="fill:#111"/>
        <path data-name="패스 502" d="M7.7 4.1a.7.7 0 1 1-.7-.7.7.7 0 0 1 .7.7" style="fill:#111"/>
    </g>
</svg>
