<svg id="그룹_805" data-name="그룹 805" xmlns="http://www.w3.org/2000/svg" width="24" height="24" viewBox="0 0 24 24">
  <rect id="사각형_5756" data-name="사각형 5756" width="24" height="24" fill="none"/>
  <g id="free-icon-calendar-3161354" transform="translate(5 5)">
    <path id="패스_324" data-name="패스 324" d="M4.615,19H15.385A1.629,1.629,0,0,0,17,17.362V7.731a1.629,1.629,0,0,0-1.615-1.638H13.769V5.546a.539.539,0,1,0-1.077,0v.546H7.308V5.546a.539.539,0,1,0-1.077,0v.546H4.615A1.629,1.629,0,0,0,3,7.731v9.631A1.629,1.629,0,0,0,4.615,19Zm0-11.815H6.231v.546a.539.539,0,1,0,1.077,0V7.185h5.385v.546a.539.539,0,1,0,1.077,0V7.185h1.615a.543.543,0,0,1,.538.546v9.631a.543.543,0,0,1-.538.546H4.615a.543.543,0,0,1-.538-.546V7.731A.543.543,0,0,1,4.615,7.185Z" transform="translate(-3 -5)"/>
    <path id="패스_325" data-name="패스 325" d="M6.535,14.1h9.628a.551.551,0,0,0,0-1.1H6.535a.551.551,0,0,0,0,1.1Z" transform="translate(-4.349 -8.634)"/>
  </g>
</svg>
