<svg id="event_sel" xmlns="http://www.w3.org/2000/svg" xmlns:xlink="http://www.w3.org/1999/xlink" width="24" height="24" viewBox="0 0 24 24">
  <defs>
    <clipPath id="clip-path">
      <rect id="Contianer_Mask_" data-name="Contianer (Mask)" width="24" height="24" fill="none"/>
    </clipPath>
  </defs>
  <g id="ic_navi_event_sel">
    <rect id="Contianer_Mask_2" data-name="Contianer (Mask)" width="24" height="24" fill="none"/>
    <g id="icon" clip-path="url(#clip-path)">
      <path id="Combined_Shape" data-name="Combined Shape" d="M.109,17.727a2,2,0,0,1,0-1.3l3.646-10.6a1,1,0,0,1,1.271-.62.989.989,0,0,1,.382.239l8.222,8.222a1,1,0,0,1,0,1.414.989.989,0,0,1-.382.239L2.65,18.967a2,2,0,0,1-2.542-1.24ZM12.785,9.853a.8.8,0,0,1,.437-1.044,10.554,10.554,0,0,1,3.815-.788L18.261,8a.8.8,0,1,1,.029,1.6l-1.223.022a8.963,8.963,0,0,0-3.237.668.8.8,0,0,1-1.044-.437ZM10.96,8.115a.8.8,0,0,1,0-1.131l3.749-3.749a.8.8,0,1,1,1.131,1.131L12.091,8.115a.8.8,0,0,1-1.131,0ZM9.222,6.29a.8.8,0,0,1-.437-1.044,8.963,8.963,0,0,0,.668-3.237L9.475.786a.8.8,0,0,1,1.6.029l-.022,1.223a10.554,10.554,0,0,1-.787,3.815.8.8,0,0,1-1.044.437Z" transform="translate(2.746 2)" fill="#08101b"/>
    </g>
  </g>
</svg>
