<svg xmlns="http://www.w3.org/2000/svg" width="18" height="14" viewBox="0 0 18 14">
  <path id="free-icon-closed-mail-envelope-70148" d="M15.145,17.424H2.855A2.819,2.819,0,0,0,0,20.2v8.449a2.819,2.819,0,0,0,2.855,2.775H15.145A2.819,2.819,0,0,0,18,28.649V20.2A2.819,2.819,0,0,0,15.145,17.424Zm-.117,1.5L9,23.475l-6.028-4.55Zm1.429,9.725a1.3,1.3,0,0,1-1.312,1.275H2.855a1.3,1.3,0,0,1-1.312-1.275V20.2a1.227,1.227,0,0,1,.072-.4l6.911,5.217a.789.789,0,0,0,.946,0L16.385,19.8a1.228,1.228,0,0,1,.073.4v8.449Z" transform="translate(0 -17.424)" fill="#596879"/>
</svg>
