<svg xmlns="http://www.w3.org/2000/svg" width="24" height="24" viewBox="0 0 24 24">
    <defs>
        <clipPath id="glvlkn4kya">
            <path data-name="Contianer (Mask)" style="fill:none" d="M0 0h24v24H0z"/>
        </clipPath>
    </defs>
    <path data-name="Contianer (Mask)" style="fill:none" d="M0 0h24v24H0z"/>
    <g style="clip-path:url(#glvlkn4kya)">
        <path data-name="Combined Shape" d="M15.371 18.3v-1.748a5.4 5.4 0 0 0-5.183-5.4H7a5.4 5.4 0 0 0-5.4 5.4V18.3a.8.8 0 1 1-1.6 0v-1.75a7 7 0 0 1 7-7h2.973a7 7 0 0 1 7 7v1.75a.8.8 0 0 1-1.6 0zM4.236 4.251A4.25 4.25 0 1 1 8.486 8.5a4.255 4.255 0 0 1-4.25-4.249zm1.6 0A2.65 2.65 0 1 0 8.486 1.6a2.653 2.653 0 0 0-2.65 2.651z" transform="translate(3.514 1.95)" style="fill:#5a6979"/>
    </g>
</svg>
