<svg xmlns="http://www.w3.org/2000/svg" width="20" height="20" viewBox="0 0 20 20">
  <path id="패스_95" data-name="패스 95" d="M15.572,9.471,13.007,12l2.564,2.529a.725.725,0,1,1-1.007,1.043L12,13.007,9.472,15.571a.712.712,0,0,1-1.007-1.007L10.993,12,8.465,9.471A.714.714,0,0,1,9.472,8.464L12,10.993l2.529-2.529a.725.725,0,1,1,1.043,1.007Zm3.5,9.6a10,10,0,1,1,0-14.143,10,10,0,0,1,0,14.143ZM18.065,5.936a8.571,8.571,0,1,0,2.521,6.071,8.571,8.571,0,0,0-2.521-6.071Z" transform="translate(-2.001 -2)" fill="#fff"/>
</svg>
