<svg xmlns="http://www.w3.org/2000/svg" width="24" height="24" viewBox="0 0 24 24">
    <defs>
        <clipPath id="ljg61wy2da">
            <path data-name="Contianer (Mask)" style="fill:none" d="M0 0h24v24H0z"/>
        </clipPath>
    </defs>
    <path data-name="Contianer (Mask)" style="fill:none" d="M0 0h24v24H0z"/>
    <g style="clip-path:url(#ljg61wy2da)">
        <path data-name="Combined Shape" d="M.7 19.04a.8.8 0 0 1-.692-.9l2.06-16.132A2.3 2.3 0 0 1 4.349 0h9.82a2.3 2.3 0 0 1 2.281 2.008l2.06 16.137a.8.8 0 1 1-1.586.2L14.863 2.211a.7.7 0 0 0-.694-.612h-9.82a.7.7 0 0 0-.7.612L1.594 18.348a.8.8 0 0 1-.9.692zm7.76-.794v-1.561a.8.8 0 1 1 1.6 0v1.562a.8.8 0 0 1-1.6 0zm0-3.965v-1.56a.8.8 0 1 1 1.6 0v1.561a.8.8 0 1 1-1.6 0zm0-4.1V9.13a1.146 1.146 0 0 0-2.292 0 .8.8 0 1 1-1.6 0A2.744 2.744 0 0 1 9.259 7.2a2.743 2.743 0 0 1 4.69 1.934.8.8 0 1 1-1.6 0 1.146 1.146 0 0 0-2.292 0v1.054a.8.8 0 1 1-1.6 0z" transform="translate(2.741 2)" style="fill:#5a6979"/>
    </g>
</svg>
