<svg xmlns="http://www.w3.org/2000/svg" width="28" height="28" viewBox="0 0 28 28">
  <g id="그룹_733" data-name="그룹 733" transform="translate(14887 -496)">
    <path id="빼기_1" data-name="빼기 1" d="M11.241,19.2H6A5.988,5.988,0,0,1,5.678,7.232,8.02,8.02,0,0,1,8.227,2.1,7.907,7.907,0,0,1,13.6,0a8.008,8.008,0,0,1,7.844,6.456c.066-.006.133-.015.2-.024A2.651,2.651,0,0,1,22,6.4a6.007,6.007,0,0,1,6,6,5.909,5.909,0,0,1-1.444,3.862l1.275,1.648A.8.8,0,0,1,27.2,19.2H16.74V17.6a2.749,2.749,0,1,0-5.5,0v1.6Zm3.5,0h-1.5V17.6a.749.749,0,1,1,1.5,0v1.6Z" transform="translate(-14887 496)" fill="#5a6979"/>
    <path id="패스_909" data-name="패스 909" d="M11.482-5.845a.755.755,0,0,0,.243.162.75.75,0,0,0,.287.058.746.746,0,0,0,.287-.058.759.759,0,0,0,.244-.162l3.3-3.308a.749.749,0,0,0,0-1.06.748.748,0,0,0-1.059,0L12.761-8.186V-16.03a.75.75,0,0,0-.749-.75.75.75,0,0,0-.749.75v7.844L9.236-10.213a.749.749,0,0,0-1.06,0,.749.749,0,0,0,0,1.06Z" transform="translate(-14885.021 529.625)" fill="#5a6979" fill-rule="evenodd"/>
    <text id="CO" transform="translate(-14874.3 509.8)" fill="#fff" font-size="9" font-family="Roboto-Medium, Roboto" font-weight="500"><tspan x="-6.045" y="0">CO</tspan></text>
    <text id="_2" data-name="2" transform="translate(-14866.65 509.1)" fill="#fff" font-size="6" font-family="Roboto-Bold, Roboto" font-weight="700"><tspan x="-1.721" y="0">2</tspan></text>
  </g>
</svg>
