<svg xmlns="http://www.w3.org/2000/svg" width="16" height="18" viewBox="0 0 16 18">
  <path id="Combined_Shape" data-name="Combined Shape" d="M5,15H1.414a1.415,1.415,0,0,1-1-2.415l1.367-1.366A.758.758,0,0,0,2,10.69V6A6.007,6.007,0,0,1,8,0l.157,0A6.187,6.187,0,0,1,14,6.278V10.69a.755.755,0,0,0,.219.529l1.367,1.366a1.415,1.415,0,0,1-1,2.415H11a3,3,0,0,1-6,0Zm3,1.5A1.5,1.5,0,0,0,9.5,15h-3A1.5,1.5,0,0,0,8,16.5ZM3.5,6v4.69a2.233,2.233,0,0,1-.659,1.589L1.621,13.5H14.379l-1.22-1.22A2.233,2.233,0,0,1,12.5,10.69V6.278A4.677,4.677,0,0,0,8.12,1.5L8,1.5A4.505,4.505,0,0,0,3.5,6Z" fill="#5a6979"/>
</svg>
