<svg id="next-button" xmlns="http://www.w3.org/2000/svg" width="20" height="20" viewBox="0 0 20 20">
  <path id="패스_93" data-name="패스 93" d="M10,20A10,10,0,1,1,20,10,10.011,10.011,0,0,1,10,20ZM10,1.369A8.631,8.631,0,1,0,18.633,10,8.641,8.641,0,0,0,10,1.369Z" transform="translate(-0.002 0)" fill="#fff"/>
  <path id="패스_94" data-name="패스 94" d="M57.378,69.662a.613.613,0,0,1-.925,0,.771.771,0,0,1,0-1.017l2.513-2.763H51.69a.722.722,0,0,1,0-1.438h7.277l-2.513-2.764a.771.771,0,0,1,0-1.017.613.613,0,0,1,.925,0l3.63,3.992a.771.771,0,0,1,0,1.017Z" transform="translate(-46.093 -55.161)" fill="#fff"/>
</svg>
