<svg id="Home_nor" xmlns="http://www.w3.org/2000/svg" xmlns:xlink="http://www.w3.org/1999/xlink" width="24" height="24" viewBox="0 0 24 24">
  <defs>
    <clipPath id="clip-path">
      <rect id="Contianer_Mask_" data-name="Contianer (Mask)" width="24" height="24" fill="none"/>
    </clipPath>
  </defs>
  <g id="ic_navi_home_nor">
    <rect id="Contianer_Mask_2" data-name="Contianer (Mask)" width="24" height="24" fill="none"/>
    <g id="icon" clip-path="url(#clip-path)">
      <path id="Combined_Shape" data-name="Combined Shape" d="M10.05,19.1H2.8a.8.8,0,0,1-.8-.8V8.819L1.323,9.4a.8.8,0,0,1-1.051,0L.2,9.323A.8.8,0,0,1,.276,8.194l9.25-8a.8.8,0,0,1,1.047,0l9.25,8A.8.8,0,0,1,18.777,9.4L18.1,8.819V18.3a.8.8,0,0,1-.8.8ZM16.5,17.5V7.435L10.05,1.857,3.6,7.436V17.5H9.25v-4.95a.8.8,0,0,1,1.6,0V17.5Z" transform="translate(1.95 1.95)" fill="#5a6979"/>
    </g>
  </g>
</svg>
