<svg xmlns="http://www.w3.org/2000/svg" width="14" height="14" viewBox="0 0 14 14">
    <g data-name="그룹 8">
        <g data-name="그룹 7">
            <path data-name="패스 8" d="M7 0a7 7 0 1 0 7 7 7 7 0 0 0-7-7zm0 13.023A6.023 6.023 0 1 1 13.023 7 6.03 6.03 0 0 1 7 13.023z" style="fill:#1d76e8"/>
        </g>
    </g>
    <g data-name="그룹 10">
        <g data-name="그룹 9">
            <path data-name="패스 9" d="M230.8 213.4c-.433 0-.74.183-.74.452v3.663c0 .231.308.461.74.461.413 0 .75-.231.75-.461v-3.663c-.001-.272-.337-.452-.75-.452z" transform="translate(-223.799 -207.677)" style="fill:#1d76e8"/>
        </g>
    </g>
    <g data-name="그룹 12">
        <g data-name="그룹 11">
            <path data-name="패스 10" d="M229.163 134.208a.693.693 0 1 0 .779.683.745.745 0 0 0-.779-.683z" transform="translate(-222.163 -130.555)" style="fill:#1d76e8"/>
        </g>
    </g>
</svg>
