<svg xmlns="http://www.w3.org/2000/svg" xmlns:xlink="http://www.w3.org/1999/xlink" width="14" height="14" viewBox="0 0 14 14">
  <defs>
    <clipPath id="clip-path">
      <path id="패스_659" data-name="패스 659" d="M-3.009-21h14V-7h-14Z" transform="translate(3.009 21)" fill="none" clip-rule="evenodd"/>
    </clipPath>
    <clipPath id="clip-path-2">
      <path id="패스_658" data-name="패스 658" d="M7.415-17a3.065,3.065,0,0,0-2.171.9A3.066,3.066,0,0,0,3.074-17,3.063,3.063,0,0,0,.9-16.1a3.074,3.074,0,0,0,0,4.348L4.934-7.688a.437.437,0,0,0,.311.129.436.436,0,0,0,.31-.129l4.034-4.063a3.075,3.075,0,0,0,0-4.348A3.064,3.064,0,0,0,7.415-17m0,.875a2.184,2.184,0,0,1,1.555.644,2.2,2.2,0,0,1,0,3.113L5.245-8.618,1.519-12.371a2.2,2.2,0,0,1,0-3.11,2.185,2.185,0,0,1,1.555-.644,2.187,2.187,0,0,1,1.553.642l.618.616.618-.616a2.187,2.187,0,0,1,1.553-.642" transform="translate(0 17)" fill="none" clip-rule="evenodd"/>
    </clipPath>
  </defs>
  <g id="like" transform="translate(3.009 21)">
    <g id="그룹_486" data-name="그룹 486" transform="translate(-3.009 -21)" clip-path="url(#clip-path)">
      <g id="그룹_485" data-name="그룹 485" transform="translate(1.755 2.334)" clip-path="url(#clip-path-2)">
        <path id="패스_657" data-name="패스 657" d="M-1-18H10.667V-7.392H-1Z" transform="translate(0.417 17.417)" fill="#111"/>
      </g>
    </g>
  </g>
</svg>
