<svg xmlns="http://www.w3.org/2000/svg" width="16" height="18" viewBox="0 0 16 18">
  <path id="free-icon-font-running-6627796" d="M18,9a.756.756,0,0,1-.762.75H15.051a2.306,2.306,0,0,1-1.957-1.089l-1.042-1.7L10.919,9.675a.766.766,0,0,1-.994.41.746.746,0,0,1-.416-.978L10.8,6H9.326L7.754,9.774a.744.744,0,0,0,.3.919l3.5,2.175a.747.747,0,0,1,.355.632v3.75a.762.762,0,0,1-1.524,0V13.913l-3.144-1.95A2.231,2.231,0,0,1,6.343,9.2L7.679,6H5.989a.759.759,0,0,0-.681.414l-1.1,2.171a.768.768,0,0,1-1.022.336.745.745,0,0,1-.341-1.006l1.1-2.175A2.278,2.278,0,0,1,5.989,4.5h5.046a2.306,2.306,0,0,1,1.959,1.09l1.4,2.3a.769.769,0,0,0,.652.363h2.187A.756.756,0,0,1,18,9ZM6.476,12.61a.766.766,0,0,0-.99.418.757.757,0,0,1-.708.472H2.762a.75.75,0,1,0,0,1.5H4.778A2.276,2.276,0,0,0,6.9,13.585a.746.746,0,0,0-.424-.975ZM11.9,3.75a1.89,1.89,0,0,0,1.9-1.875,1.9,1.9,0,0,0-3.81,0A1.89,1.89,0,0,0,11.9,3.75Z" transform="translate(-2)" fill="#5a6979"/>
</svg>
