<svg xmlns="http://www.w3.org/2000/svg" width="14" height="18" viewBox="0 0 14 18">
  <g id="_01_align_center" transform="translate(-40.725 -0.198)">
    <path id="패스_514" data-name="패스 514" d="M47.725,18.2l-.486-.448c-.669-.6-6.514-6.039-6.514-10.015a7.284,7.284,0,0,1,7-7.537,7.284,7.284,0,0,1,7,7.537c0,3.976-5.845,9.411-6.512,10.018Zm0-16.37a5.715,5.715,0,0,0-5.486,5.907c0,2.5,3.6,6.488,5.486,8.314,1.89-1.827,5.486-5.819,5.486-8.314A5.715,5.715,0,0,0,47.725,1.828Z" transform="translate(0 0)" fill="#5a6979"/>
    <path id="패스_515" data-name="패스 515" d="M173.374,136.1a3.248,3.248,0,1,1,3.248-3.248A3.248,3.248,0,0,1,173.374,136.1Zm0-4.872A1.624,1.624,0,1,0,175,132.847,1.624,1.624,0,0,0,173.374,131.223Z" transform="translate(-125.649 -125.048)" fill="#5a6979"/>
  </g>
</svg>
