<svg xmlns="http://www.w3.org/2000/svg" xmlns:xlink="http://www.w3.org/1999/xlink" width="27" height="28" viewBox="0 0 27 28">
  <defs>
    <clipPath id="clip-path">
      <path id="패스_559" data-name="패스 559" d="M21.413-24H5.586a2.244,2.244,0,0,0-2.174,1.979L.026,1.312a2.319,2.319,0,0,0,1.84,2.661A2.155,2.155,0,0,0,2.2,4H24.8A2.27,2.27,0,0,0,27,1.667a2.549,2.549,0,0,0-.025-.355L23.589-22.021A2.245,2.245,0,0,0,21.413-24" transform="translate(0 24)" fill="none" clip-rule="evenodd"/>
    </clipPath>
    <clipPath id="clip-path-2">
      <path id="패스_561" data-name="패스 561" d="M13.271-1.371a.947.947,0,0,0-.946.946V1.94a.946.946,0,1,0,1.892,0V-.425a.947.947,0,0,0-.946-.946m0-6.008a.947.947,0,0,0-.946.946v2.365a.947.947,0,0,0,.946.946.947.947,0,0,0,.946-.946V-6.433a.947.947,0,0,0-.946-.946m2.947-8.387a3.865,3.865,0,0,0-2.947,1.379,3.865,3.865,0,0,0-2.947-1.379,3.9,3.9,0,0,0-3.895,3.893.946.946,0,0,0,.945.946.946.946,0,0,0,.946-.946,2,2,0,0,1,2-2,2,2,0,0,1,2,2v1.6a.946.946,0,0,0,.946.945.946.946,0,0,0,.946-.945v-1.6a2,2,0,0,1,2-2,2,2,0,0,1,2,2,.947.947,0,0,0,.946.946.946.946,0,0,0,.946-.946,3.9,3.9,0,0,0-3.893-3.893" transform="translate(-6.429 15.766)" fill="#fff" clip-rule="evenodd"/>
    </clipPath>
  </defs>
  <g id="컵세척_아이콘" data-name="컵세척 아이콘" transform="translate(-68.5 -201)">
    <g id="그룹_392" data-name="그룹 392" transform="translate(68.5 201)">
      <g id="그룹_389" data-name="그룹 389" transform="translate(0 0)" clip-path="url(#clip-path)">
        <path id="패스_558" data-name="패스 558" d="M-1-25H29.8V5.333H-1Z" transform="translate(-0.161 23.833)" fill="#19dbba"/>
      </g>
      <g id="그룹_390" data-name="그룹 390" transform="translate(6.658 9.347)" clip-path="url(#clip-path-2)">
        <path id="패스_560" data-name="패스 560" d="M5.429-16.766H21.477V4.246H5.429Z" transform="translate(-6.612 15.583)" fill="#fff"/>
      </g>
    </g>
  </g>
</svg>
