<svg xmlns="http://www.w3.org/2000/svg" width="24" height="24" viewBox="0 0 24 24">
    <defs>
        <clipPath id="8szricjcea">
            <path data-name="Contianer (Mask)" style="fill:none" d="M0 0h24v24H0z"/>
        </clipPath>
    </defs>
    <path data-name="Contianer (Mask)" style="fill:none" d="M0 0h24v24H0z"/>
    <g style="clip-path:url(#8szricjcea)">
        <path data-name="Combined Shape" d="M.108 17.727a2.017 2.017 0 0 1 0-1.3l3.646-10.6a1 1 0 0 1 1.652-.382l8.221 8.222a1 1 0 0 1 0 1.414.988.988 0 0 1-.382.239l-10.6 3.646a2 2 0 0 1-2.543-1.24zm1.513-.781a.405.405 0 0 0-.016.2l.016.065a.4.4 0 0 0 .508.248l9.688-3.333-6.862-6.867zm11.164-7.093a.8.8 0 0 1 .437-1.044 10.554 10.554 0 0 1 3.815-.788L18.26 8a.8.8 0 0 1 .029 1.6l-1.223.022a8.963 8.963 0 0 0-3.237.668.8.8 0 0 1-1.044-.437zm-1.826-1.738a.8.8 0 0 1 0-1.131l3.749-3.749a.8.8 0 0 1 1.132 1.131l-3.749 3.749a.8.8 0 0 1-1.131 0zM9.221 6.29a.8.8 0 0 1-.437-1.044 8.963 8.963 0 0 0 .668-3.237L9.474.786a.8.8 0 1 1 1.6.029l-.022 1.223a10.554 10.554 0 0 1-.787 3.815.8.8 0 0 1-1.044.437z" transform="translate(2.746 2)" style="fill:#5a6979"/>
    </g>
</svg>
