<svg xmlns="http://www.w3.org/2000/svg" width="18.2" height="16.2" viewBox="0 0 18.2 16.2">
  <g id="Layer_26" data-name="Layer 26" transform="translate(-1.9 -3.9)">
    <path id="패스_912" data-name="패스 912" d="M18.071,6H9.419L8.705,4.893A1.911,1.911,0,0,0,7.1,4H3.929A1.965,1.965,0,0,0,2,6V18a1.965,1.965,0,0,0,1.929,2H18.071A1.965,1.965,0,0,0,20,18V8A1.965,1.965,0,0,0,18.071,6Zm.643,12a.655.655,0,0,1-.643.667H3.929A.655.655,0,0,1,3.286,18V6a.655.655,0,0,1,.643-.667H7.1a.637.637,0,0,1,.534.3L8.345,6.74a1.274,1.274,0,0,0,1.074.593h8.653A.655.655,0,0,1,18.714,8Z" fill="#5a6979" stroke="#5a6979" stroke-width="0.2"/>
  </g>
</svg>
