<svg xmlns="http://www.w3.org/2000/svg" width="17.815" height="17.82" viewBox="0 0 17.815 17.82">
  <g id="free-icon-phone-call-631879" transform="translate(0.23 0.47)">
    <g id="그룹_739" data-name="그룹 739" transform="translate(0.235 -0.001)">
      <path id="패스_910" data-name="패스 910" d="M16.691,12.1l-2.1-2.13a1.854,1.854,0,0,0-2.594,0l-1.12,1.119a27.64,27.64,0,0,1-2.47-2.237c-.741-.74-1.474-1.563-2.24-2.468L7.279,5.2a1.874,1.874,0,0,0,0-2.583L5.139.522a1.871,1.871,0,0,0-2.594,0L.815,2.266l-.058.082L.643,2.48a.659.659,0,0,0-.091.156c-1.112,1.785.774,5.758,4.529,9.542C8.119,15.188,11.3,17,13.365,17a2.382,2.382,0,0,0,1.309-.337.247.247,0,0,0,.156-.107l.107-.09.041-.049L16.691,14.7a1.833,1.833,0,0,0,.543-1.333A1.759,1.759,0,0,0,16.691,12.1Zm-.552,2.015-1.647,1.686-.1.09-.1.058c-1.178.823-4.784-.642-8.564-4.384S.461,4.224,1.268,3.039a.387.387,0,0,0,.058-.082V2.908a.42.42,0,0,0,.107-.132L3.08,1.131a1.038,1.038,0,0,1,1.466-.056l.016.015L6.678,3.228a1.044,1.044,0,0,1,0,1.439L5.3,6.025a.411.411,0,0,0,0,.551A35.957,35.957,0,0,0,7.839,9.43a37.046,37.046,0,0,0,2.849,2.534.412.412,0,0,0,.552,0l1.375-1.374a1.03,1.03,0,0,1,1.433,0l2.1,2.106a.954.954,0,0,1,.3.683A1.019,1.019,0,0,1,16.14,14.119Z" transform="translate(-0.235 0.001)" fill="#5a6979" stroke="#5a6979" stroke-width="0.7"/>
    </g>
  </g>
</svg>
