<svg data-name="그룹 327" xmlns="http://www.w3.org/2000/svg" width="18" height="16" viewBox="0 0 18 16">
    <defs>
        <clipPath id="x4902ki8ra">
            <path data-name="사각형 30035" style="fill:none" d="M0 0h18v16H0z"/>
        </clipPath>
    </defs>
    <g data-name="그룹 326" style="clip-path:url(#x4902ki8ra)">
        <path data-name="패스 449" d="M5.657 6.556H.738A.747.747 0 0 1 0 5.8V.756A.747.747 0 0 1 .738 0h4.919a.748.748 0 0 1 .738.756V5.8a.748.748 0 0 1-.738.757M1.476 5.043h3.443v-3.53H1.476z" style="fill:#000111"/>
        <path data-name="패스 450" d="M17.262 2.51H9a.747.747 0 0 1-.738-.756A.747.747 0 0 1 9 1h8.261a.757.757 0 0 1 0 1.513" style="fill:#000111"/>
        <path data-name="패스 451" d="M13.132 5.37H9a.757.757 0 0 1 0-1.513h4.131a.757.757 0 0 1 0 1.513" style="fill:#000111"/>
        <path data-name="패스 452" d="M5.657 16H.738A.747.747 0 0 1 0 15.244V10.2a.747.747 0 0 1 .738-.757h4.919a.748.748 0 0 1 .738.757v5.043a.748.748 0 0 1-.738.757m-4.181-1.513h3.443v-3.53H1.476z" style="fill:#000111"/>
        <path data-name="패스 453" d="M17.262 11.954H9a.757.757 0 0 1 0-1.513h8.261a.757.757 0 0 1 0 1.513" style="fill:#000111"/>
        <path data-name="패스 454" d="M13.132 14.815H9A.757.757 0 0 1 9 13.3h4.131a.757.757 0 0 1 0 1.513" style="fill:#000111"/>
    </g>
</svg>
