<svg xmlns="http://www.w3.org/2000/svg" xmlns:xlink="http://www.w3.org/1999/xlink" width="18" height="18" viewBox="0 0 18 18">
  <defs>
    <clipPath id="clip-path">
      <rect id="사각형_30033" data-name="사각형 30033" width="18" height="18" fill="#111"/>
    </clipPath>
  </defs>
  <g id="그룹_323" data-name="그룹 323" transform="translate(0 0)">
    <g id="그룹_322" data-name="그룹 322" transform="translate(0 -0.001)" clip-path="url(#clip-path)">
      <path id="패스_442" data-name="패스 442" d="M.743,18A.743.743,0,0,1,0,17.259V3.054a.741.741,0,0,1,.456-.683L6,.057a.748.748,0,0,1,.577,0l5.2,2.193L16.967.059A.743.743,0,0,1,18,.74V14.793a.742.742,0,0,1-.437.675l-5.476,2.466a.742.742,0,0,1-.611,0L6.287,15.6,1.046,17.935a.74.74,0,0,1-.3.064m5.545-3.947a.747.747,0,0,1,.305.065l5.188,2.329,4.733-2.131V1.859L12.071,3.737a.751.751,0,0,1-.579,0l-5.2-2.193-4.8,2v12.57l4.5-2a.74.74,0,0,1,.3-.064" transform="translate(0 0)" fill="#111"/>
      <path id="패스_443" data-name="패스 443" d="M11.869,17.878a.742.742,0,0,1-.743-.74V3.085a.743.743,0,0,1,1.486,0V17.138a.742.742,0,0,1-.743.74" transform="translate(-0.105 -0.029)" fill="#111"/>
      <path id="패스_444" data-name="패스 444" d="M6.306,15.533a.742.742,0,0,1-.743-.74V.74a.743.743,0,0,1,1.486,0V14.793a.742.742,0,0,1-.743.74" transform="translate(-0.052 0)" fill="#111"/>
    </g>
  </g>
</svg>
