<svg xmlns="http://www.w3.org/2000/svg" width="24" height="24" viewBox="0 0 24 24">
  <g id="icon_share" transform="translate(-331 -772)">
    <rect id="사각형_30063" data-name="사각형 30063" width="24" height="24" transform="translate(331 772)" fill="none"/>
    <g id="share" transform="translate(335 775)">
      <path id="패스_456" data-name="패스 456" d="M319.3,18.315A2.315,2.315,0,1,1,316.983,16,2.315,2.315,0,0,1,319.3,18.315Zm0,0" transform="translate(-303.831 -15.466)"/>
      <path id="패스_457" data-name="패스 457" d="M301.517,5.7a2.849,2.849,0,1,1,2.849-2.849A2.852,2.852,0,0,1,301.517,5.7Zm0-4.629a1.781,1.781,0,1,0,1.78,1.78,1.783,1.783,0,0,0-1.78-1.78Zm0,0" transform="translate(-288.366)"/>
      <path id="패스_458" data-name="패스 458" d="M319.3,359.647a2.315,2.315,0,1,1-2.315-2.315A2.315,2.315,0,0,1,319.3,359.647Zm0,0" transform="translate(-303.831 -344.495)"/>
      <path id="패스_459" data-name="패스 459" d="M301.517,347.03a2.849,2.849,0,1,1,2.849-2.849A2.852,2.852,0,0,1,301.517,347.03Zm0-4.629a1.781,1.781,0,1,0,1.78,1.781A1.783,1.783,0,0,0,301.517,342.4Zm0,0" transform="translate(-288.366 -329.03)"/>
      <path id="패스_460" data-name="패스 460" d="M20.629,188.983a2.315,2.315,0,1,1-2.315-2.315A2.315,2.315,0,0,1,20.629,188.983Zm0,0" transform="translate(-15.466 -179.982)"/>
      <path id="패스_461" data-name="패스 461" d="M2.849,176.366A2.849,2.849,0,1,1,5.7,173.517a2.852,2.852,0,0,1-2.849,2.849Zm0-4.629a1.78,1.78,0,1,0,1.781,1.78,1.782,1.782,0,0,0-1.781-1.78Zm0,0" transform="translate(0 -164.517)"/>
      <path id="패스_462" data-name="패스 462" d="M115.091,95.407a.747.747,0,0,1-.645-.36.7.7,0,0,1,.277-.972l6.881-3.768a.757.757,0,0,1,1.012.266.7.7,0,0,1-.277.972l-6.881,3.768a.76.76,0,0,1-.366.093Zm0,0" transform="translate(-110.531 -86.973)"/>
      <path id="패스_463" data-name="패스 463" d="M121.993,271.411a.761.761,0,0,1-.366-.093l-6.881-3.767a.7.7,0,0,1-.277-.972.757.757,0,0,1,1.012-.266l6.881,3.768a.7.7,0,0,1,.277.972A.748.748,0,0,1,121.993,271.411Zm0,0" transform="translate(-110.553 -256.653)"/>
    </g>
  </g>
</svg>
