<svg xmlns="http://www.w3.org/2000/svg" width="24" height="24" viewBox="0 0 24 24">
    <defs>
        <clipPath id="rpu0ecl3ka">
            <path data-name="Contianer (Mask)" style="fill:none" d="M0 0h24v24H0z"/>
        </clipPath>
    </defs>
    <path data-name="Contianer (Mask)" style="fill:none" d="M0 0h24v24H0z"/>
    <g style="clip-path:url(#rpu0ecl3ka)">
        <path data-name="Combined Shape" d="M8.05 19.1H2.8a.8.8 0 0 1-.8-.8V8.82l-.677.58a.8.8 0 0 1-1.051 0L.2 9.323a.8.8 0 0 1 .076-1.129l9.25-8a.8.8 0 0 1 1.047 0l9.25 8A.8.8 0 1 1 18.777 9.4l-.677-.58v9.48a.8.8 0 0 1-.8.8h-5.25v-6.35a1 1 0 0 0-1-1h-2a1 1 0 0 0-1 1v6.35z" transform="translate(1.95 1.95)" style="fill:#08101b"/>
    </g>
</svg>
