<svg xmlns="http://www.w3.org/2000/svg" width="24" height="24" viewBox="0 0 24 24">
    <defs>
        <clipPath id="p42onivh7a">
            <path data-name="Contianer (Mask)" style="fill:none" d="M0 0h24v24H0z"/>
        </clipPath>
    </defs>
    <path data-name="Contianer (Mask)" style="fill:none" d="M0 0h24v24H0z"/>
    <g style="clip-path:url(#p42onivh7a)">
        <path data-name="Combined Shape" d="M18 22a1 1 0 0 1-1-1v-3a1 1 0 0 1 1-1h3a1 1 0 0 1 1 1v3a1 1 0 0 1-1 1zM1 22a1 1 0 0 1-1-1v-8a1 1 0 0 1 1-1h8a1 1 0 0 1 1 1v8a1 1 0 0 1-1 1zm1.8-2.8h4.4v-4.4H2.8zM13 17a1 1 0 0 1-1-1v-3a1 1 0 0 1 1-1h3a1 1 0 0 1 1 1v3a1 1 0 0 1-1 1zm0-7a1 1 0 0 1-1-1V1a1 1 0 0 1 1-1h8a1 1 0 0 1 1 1v8a1 1 0 0 1-1 1zm1.8-2.8h4.4V2.8h-4.4zM1 10a1 1 0 0 1-1-1V1a1 1 0 0 1 1-1h8a1 1 0 0 1 1 1v8a1 1 0 0 1-1 1zm1.8-2.8h4.4V2.8H2.8z" transform="translate(1 1)" style="fill:#fff"/>
    </g>
</svg>
