<svg id="cleaning_sel" xmlns="http://www.w3.org/2000/svg" xmlns:xlink="http://www.w3.org/1999/xlink" width="24" height="24" viewBox="0 0 24 24">
  <defs>
    <clipPath id="clip-path">
      <rect id="Contianer_Mask_" data-name="Contianer (Mask)" width="24" height="24" fill="none"/>
    </clipPath>
  </defs>
  <g id="ic_navi_cleaning_sel">
    <rect id="Contianer_Mask_2" data-name="Contianer (Mask)" width="24" height="24" fill="none"/>
    <g id="icon" clip-path="url(#clip-path)">
      <path id="Combined_Shape" data-name="Combined Shape" d="M5.8,19.068c-3.248,0-4.965-.009-5.1-.028a.8.8,0,0,1-.692-.9L2.067,2.008A2.3,2.3,0,0,1,4.349,0h9.82a2.3,2.3,0,0,1,2.281,2.008l2.06,16.137a.8.8,0,0,1-.794.9l-.723,0h-.049c-1.306,0-4.024.011-6.885.016V16.685a.8.8,0,1,0-1.6,0v2.381H5.8ZM9.258,11.92a.8.8,0,0,0-.8.8v1.561a.8.8,0,1,0,1.6,0V12.721A.8.8,0,0,0,9.258,11.92ZM7.313,7.985A1.147,1.147,0,0,1,8.458,9.13v1.054a.8.8,0,1,0,1.6,0V9.13a1.146,1.146,0,0,1,2.292,0,.8.8,0,1,0,1.6,0A2.743,2.743,0,0,0,9.258,7.2,2.744,2.744,0,0,0,4.568,9.13a.8.8,0,1,0,1.6,0A1.147,1.147,0,0,1,7.313,7.985Z" transform="translate(2.742 2)" fill="#08101b"/>
    </g>
  </g>
</svg>
