<svg xmlns="http://www.w3.org/2000/svg" xmlns:xlink="http://www.w3.org/1999/xlink" width="14" height="14" viewBox="0 0 14 14">
  <defs>
    <clipPath id="clip-path">
      <path id="패스_869" data-name="패스 869" d="M-3.009-21h14V-7h-14Z" transform="translate(3.009 20.999)" fill="none" clip-rule="evenodd"/>
    </clipPath>
    <clipPath id="clip-path-2">
      <path id="패스_868" data-name="패스 868" d="M5.245-16.1a3.073,3.073,0,0,1,4.344,0,3.075,3.075,0,0,1,.1,4.243l-.1.1L5.555-7.687a.438.438,0,0,1-.621,0L.911-11.74.9-11.751A3.075,3.075,0,0,1,.9-16.1,3.075,3.075,0,0,1,5.245-16.1Z" transform="translate(0 17)" fill="none" clip-rule="evenodd"/>
    </clipPath>
  </defs>
  <g id="like_full" transform="translate(3.009 20.999)">
    <g id="그룹_556" data-name="그룹 556" transform="translate(-3.009 -20.999)" clip-path="url(#clip-path)">
      <g id="그룹_555" data-name="그룹 555" transform="translate(1.755 2.333)" clip-path="url(#clip-path-2)">
        <path id="패스_867" data-name="패스 867" d="M-1-18H10.667V-7.348H-1Z" transform="translate(0.417 17.417)" fill="#fa2d14"/>
      </g>
    </g>
  </g>
</svg>
