<svg xmlns="http://www.w3.org/2000/svg" width="16" height="16" viewBox="0 0 16 16">
    <circle data-name="타원 2" cx="3" cy="3" r="3" transform="translate(4.936 4.936)" style="fill:#fff"/>
    <path data-name="패스 49" d="M15.333 7.333h-.7a6.677 6.677 0 0 0-5.966-5.966v-.7a.667.667 0 1 0-1.333 0v.7a6.677 6.677 0 0 0-5.967 5.966h-.7a.667.667 0 1 0 0 1.333h.7a6.677 6.677 0 0 0 5.966 5.966v.7a.667.667 0 0 0 1.333 0v-.7a6.677 6.677 0 0 0 5.966-5.966h.7a.667.667 0 1 0 0-1.333zm-6.676 5.956a.658.658 0 0 0-1.315 0 5.338 5.338 0 0 1-4.63-4.631.659.659 0 0 0 0-1.315 5.338 5.338 0 0 1 4.63-4.631.659.659 0 0 0 1.315 0 5.338 5.338 0 0 1 4.631 4.631.659.659 0 0 0 0 1.315 5.34 5.34 0 0 1-4.631 4.631z" style="fill:#fff"/>
</svg>
