<svg xmlns="http://www.w3.org/2000/svg" width="16" height="15.202" viewBox="0 0 16 15.202">
    <path data-name="패스 7" d="m15.3 8.345-4.4-.417a.762.762 0 0 1-.631-.467L8.688 3.635a.755.755 0 0 0-1.4 0L5.721 7.461a.746.746 0 0 1-.631.467l-4.406.417A.762.762 0 0 0 .255 9.67l3.32 2.916a.755.755 0 0 1 .24.745l-1 4.091a.762.762 0 0 0 1.124.833L7.615 16.1a.764.764 0 0 1 .77 0l3.674 2.159a.759.759 0 0 0 1.124-.833l-.983-4.094a.755.755 0 0 1 .24-.745l3.32-2.916a.771.771 0 0 0-.46-1.326z" transform="translate(0 -3.162)" style="fill:#cfd4e0"/>
</svg>
