<svg xmlns="http://www.w3.org/2000/svg" width="100" height="100" viewBox="0 0 100 100">
    <path data-name="사각형 30065" style="fill:none" d="M0 0h100v100H0z"/>
    <g data-name="그룹 107" transform="translate(-152 -255.417)">
        <g data-name="058---new-message">
            <path d="m60.017 17.539-5.149-5.149L1.959 30.017a1.407 1.407 0 0 0-.169 2.6l28.572 13.93a1.355 1.355 0 0 1 .647.647l13.927 28.571a1.407 1.407 0 0 0 2.6-.169l17.629-52.908z" transform="translate(158.405 271.457)" style="fill:#cfd4e0"/>
            <path data-name="Shape" d="M60.017 17.539 49.424 28.132l-3.981 3.981-14.7 14.7a1.428 1.428 0 0 0-.38-.267L1.79 32.619a1.407 1.407 0 0 1 .169-2.6L54.868 12.39z" transform="translate(158.405 270.816)" style="fill:#bec3d0"/>
            <path data-name="Shape" d="M1.494 67.542a1.407 1.407 0 0 1-.732-2.61 28.377 28.377 0 0 0 5.37-4.261 38.631 38.631 0 0 0 4.568-5.409 17.97 17.97 0 0 1-7.809-4.668A8.28 8.28 0 0 1 0 44.752a6.785 6.785 0 0 1 3.715-5.636 9.133 9.133 0 0 1 6.352-.9 8.593 8.593 0 0 1 5.254 3.568 9.48 9.48 0 0 1 1.259 6.723A17.706 17.706 0 0 1 15.212 53a10.148 10.148 0 0 0 1.5-.173c5.668-1.076 8.873-6.914 8.591-11.706a1.409 1.409 0 0 1 2.814-.165c.352 5.977-3.7 13.273-10.874 14.631a13.81 13.81 0 0 1-3.517.2 39.109 39.109 0 0 1-5.591 6.871 31.2 31.2 0 0 1-5.908 4.683 1.407 1.407 0 0 1-.733.205zm6.612-26.729a6.339 6.339 0 0 0-3.032.761 4.049 4.049 0 0 0-2.26 3.226 5.675 5.675 0 0 0 2.069 3.8 15.126 15.126 0 0 0 6.626 3.961q.352.1.7.174a15.639 15.639 0 0 0 1.591-4.672 6.688 6.688 0 0 0-.831-4.731 5.83 5.83 0 0 0-3.525-2.372 6.076 6.076 0 0 0-1.335-.148z" transform="translate(158 281.875)" style="fill:#bec3d0"/>
        </g>
        <circle cx="16.897" cy="16.897" r="16.897" transform="translate(212 261.417)" style="fill:#19dbba"/>
        <path data-name="!" d="M-.51-15.78h2.521v6L1.4-1.883H.136l-.646-7.9zm0 15.66h2.471v2.584H-.51z" transform="translate(228.51 285.197)" style="fill:#fff"/>
    </g>
</svg>
