<svg xmlns="http://www.w3.org/2000/svg" width="8" height="14" viewBox="0 0 8 14">
    <defs>
        <clipPath id="4hogn3xima">
            <path data-name="사각형 30036" style="fill:none" d="M0 0h8v14H0z"/>
        </clipPath>
    </defs>
    <g data-name="그룹 330">
        <g data-name="그룹 328" style="clip-path:url(#4hogn3xima)" transform="rotate(180 4 7)">
            <path fill="current" data-name="패스 455" d="M7.206 14a.8.8 0 0 1-.561-.227L.232 7.512a.762.762 0 0 1 0-1.1L6.571.227a.807.807 0 0 1 1.123 0 .762.762 0 0 1 0 1.1L1.916 6.964l5.851 5.713a.762.762 0 0 1 0 1.1.8.8 0 0 1-.561.223" />
        </g>
    </g>
</svg>