<svg data-name="my cup, Logo" xmlns="http://www.w3.org/2000/svg" width="147" height="40" viewBox="0 0 147 40">
    <defs>
        <clipPath id="a98hcmg98a">
            <path data-name="사각형 30610" style="fill:none" d="M0 0h146.211v40H0z"/>
        </clipPath>
    </defs>
    <path data-name="사각형 30615" style="fill:none" d="M0 0h147v40H0z"/>
    <g data-name="my cup, Logo_s">
        <g data-name="그룹 884" style="clip-path:url(#a98hcmg98a)" transform="translate(.394)">
            <path data-name="패스 455" d="M350.987 5.676a12.609 12.609 0 0 1 12.513 5.567l4.532-3A18.032 18.032 0 0 0 350.987.2z" transform="translate(-273.781 -.069)" style="fill:#4dabff"/>
            <path data-name="패스 456" d="M306.439 81.627a12.609 12.609 0 0 1-22.993-8.975h-5.487a18.04 18.04 0 0 0 33.012 11.971z" transform="translate(-216.723 -56.671)" style="fill:#4dabff"/>
            <path data-name="패스 457" d="M453.967 64.527c-6.227 0-8.907-4.956-8.907-9.371V42.087h5.24v12.3c0 2.34 1.292 5.42 4.919 5.42a4.944 4.944 0 0 0 5.17-5.252V42.087h5.362V63.9h-4.893v-1.692l-.257.225c-2.269 1.992-5.844 2.093-6.632 2.093" transform="translate(-347.161 -32.829)" style="fill:#00e27b"/>
            <path data-name="패스 458" d="M155.585 72.942v-4.8h2.052a4.906 4.906 0 0 0 4.1-1.779 15.791 15.791 0 0 0 2.411-4.606l.017-.059-9.965-19.467h6.084l6.451 13.633 5.765-13.633h5.954L167.28 66.2c-2.2 4.474-5.37 6.744-9.419 6.744z" transform="translate(-120.283 -32.942)" style="fill:#00e27b"/>
            <path data-name="패스 459" d="M27.584 61.155V48.216c0-3.032-1.49-4.7-4.195-4.7a4.352 4.352 0 0 0-4.416 4.671v12.968h-5.136V48.093c0-2.2-1.3-4.56-4.14-4.56a4.444 4.444 0 0 0-4.513 4.653v12.969H0V39.7h4.612l.231 1.862.222-.205a9.8 9.8 0 0 1 6.235-2.162 7.871 7.871 0 0 1 5.915 2.467l.112.139.122-.13a9.427 9.427 0 0 1 6.491-2.551c5.867 0 8.842 3.3 8.842 9.82v12.215z" transform="translate(-.001 -30.515)" style="fill:#00e27b"/>
            <path data-name="패스 460" d="M284.255 13.015a.209.209 0 0 1-.2-.137 10.855 10.855 0 0 0-6.171-6.171.213.213 0 0 1 0-.4 10.855 10.855 0 0 0 6.171-6.17.213.213 0 0 1 .4 0 10.855 10.855 0 0 0 6.171 6.171.213.213 0 0 1 0 .4 10.855 10.855 0 0 0-6.171 6.171.209.209 0 0 1-.2.137" transform="translate(-216.652)" style="fill:#00e27b"/>
            <path data-name="패스 461" d="M563.352 41.886v-1.651h-5.365v30.742h5.365V60.636a10.986 10.986 0 0 0 6.414 2.167 11.426 11.426 0 0 0 11.694-11.588c0-9.108-10.617-14.872-18.108-9.328m6.415 16.039a6.327 6.327 0 0 1-6.415-6.175v-1.087a6.248 6.248 0 0 1 6.415-6.16 6.444 6.444 0 0 1 6.433 6.71 6.432 6.432 0 0 1-6.433 6.71" transform="translate(-435.248 -30.977)" style="fill:#00e27b"/>
        </g>
    </g>
</svg>
